<?xml version="1.0" encoding="UTF-8" standalone="no"?>
<!-- Created with Inkscape (http://www.inkscape.org/) -->

<svg
   xmlns:dc="http://purl.org/dc/elements/1.1/"
   xmlns:cc="http://creativecommons.org/ns#"
   xmlns:rdf="http://www.w3.org/1999/02/22-rdf-syntax-ns#"
   xmlns:svg="http://www.w3.org/2000/svg"
   xmlns="http://www.w3.org/2000/svg"
   xmlns:xlink="http://www.w3.org/1999/xlink"
   xmlns:sodipodi="http://sodipodi.sourceforge.net/DTD/sodipodi-0.dtd"
   xmlns:inkscape="http://www.inkscape.org/namespaces/inkscape"
   id="svg4099"
   version="1.1"
   inkscape:version="0.48.4 r9939"
   width="573"
   height="213"
   sodipodi:docname="map_markers.svg">
  <metadata
     id="metadata4105">
    <rdf:RDF>
      <cc:Work
         rdf:about="">
        <dc:format>image/svg+xml</dc:format>
        <dc:type
           rdf:resource="http://purl.org/dc/dcmitype/StillImage" />
        <dc:title></dc:title>
      </cc:Work>
    </rdf:RDF>
  </metadata>
  <defs
     id="defs4103">
    <linearGradient
       id="linearGradient5341">
      <stop
         style="stop-color:#e6e6e6;stop-opacity:0;"
         offset="0"
         id="stop5343" />
      <stop
         style="stop-color:#ffffff;stop-opacity:0.22321428;"
         offset="1"
         id="stop5345" />
    </linearGradient>
    <linearGradient
       id="linearGradient4172">
      <stop
         style="stop-color:#ff3133;stop-opacity:1;"
         offset="0"
         id="stop4174" />
      <stop
         style="stop-color:#ef0000;stop-opacity:0.7589286;"
         offset="1"
         id="stop4176" />
    </linearGradient>
    <radialGradient
       inkscape:collect="always"
       xlink:href="#linearGradient4172"
       id="radialGradient4178"
       cx="522.32794"
       cy="111.46449"
       fx="522.32794"
       fy="111.46449"
       r="55.782425"
       gradientTransform="matrix(-0.00662048,0.42414771,-0.50586728,-0.0057078,487.16949,-77.47859)"
       gradientUnits="userSpaceOnUse" />
    <radialGradient
       inkscape:collect="always"
       xlink:href="#linearGradient4172-4"
       id="radialGradient4178-7"
       cx="522.32794"
       cy="111.46449"
       fx="522.32794"
       fy="111.46449"
       r="55.782425"
       gradientTransform="matrix(-0.0230816,1.738822,-1.7636553,-0.02339954,709.49947,-797.34811)"
       gradientUnits="userSpaceOnUse" />
    <linearGradient
       id="linearGradient4172-4">
      <stop
         style="stop-color:#b83133;stop-opacity:1"
         offset="0"
         id="stop4174-0" />
      <stop
         style="stop-color:#ef0000;stop-opacity:0.7589286;"
         offset="1"
         id="stop4176-9" />
    </linearGradient>
    <radialGradient
       inkscape:collect="always"
       xlink:href="#linearGradient4172"
       id="radialGradient5213"
       gradientUnits="userSpaceOnUse"
       gradientTransform="matrix(-0.006011,0.42456041,-0.45929701,-0.00571335,477.11933,-77.693987)"
       cx="499.19849"
       cy="117.12986"
       fx="499.19849"
       fy="117.12986"
       r="55.782425" />
    <radialGradient
       inkscape:collect="always"
       xlink:href="#linearGradient4172-8"
       id="radialGradient5213-8"
       gradientUnits="userSpaceOnUse"
       gradientTransform="matrix(-0.006011,0.42456041,-0.45929701,-0.00571335,477.11933,-77.693987)"
       cx="522.32794"
       cy="111.46449"
       fx="522.32794"
       fy="111.46449"
       r="55.782425" />
    <linearGradient
       id="linearGradient4172-8">
      <stop
         style="stop-color:#b83133;stop-opacity:1"
         offset="0"
         id="stop4174-2" />
      <stop
         style="stop-color:#ef0000;stop-opacity:0.7589286;"
         offset="1"
         id="stop4176-4" />
    </linearGradient>
    <filter
       id="filter5249"
       inkscape:label="Blur content"
       inkscape:menu="Blurs"
       inkscape:menu-tooltip="Blur the contents of objects, preserving the outline"
       color-interpolation-filters="sRGB">
      <feColorMatrix
         id="feColorMatrix5251"
         values="1 0 0 0 0 0 1 0 0 0 0 0 1 0 0 0 0 0 1 0 "
         result="result7" />
      <feGaussianBlur
         id="feGaussianBlur5253"
         result="result6"
         stdDeviation="5" />
      <feComposite
         id="feComposite5255"
         in2="result7"
         operator="atop"
         in="result6"
         result="result91" />
      <feComposite
         id="feComposite5257"
         in2="result91"
         operator="in" />
    </filter>
    <radialGradient
       inkscape:collect="always"
       xlink:href="#linearGradient5341"
       id="radialGradient5347"
       cx="422.04803"
       cy="143.89476"
       fx="422.04803"
       fy="143.89476"
       r="15"
       gradientTransform="matrix(1,0,0,1.6324307,0,-91.003471)"
       gradientUnits="userSpaceOnUse" />
    <radialGradient
       inkscape:collect="always"
       xlink:href="#linearGradient4172"
       id="radialGradient5350"
       gradientUnits="userSpaceOnUse"
       gradientTransform="matrix(-0.006011,0.42456041,-0.45929701,-0.00571335,477.11933,-77.693987)"
       cx="499.19849"
       cy="117.12986"
       fx="499.19849"
       fy="117.12986"
       r="55.782425" />
    <radialGradient
       inkscape:collect="always"
       xlink:href="#linearGradient5341"
       id="radialGradient5352"
       gradientUnits="userSpaceOnUse"
       gradientTransform="matrix(1,0,0,1.6324307,0,-91.003471)"
       cx="422.04803"
       cy="143.89476"
       fx="422.04803"
       fy="143.89476"
       r="15" />
    <radialGradient
       r="55.782425"
       fy="111.46449"
       fx="522.32794"
       cy="111.46449"
       cx="522.32794"
       gradientTransform="matrix(-0.0230816,1.738822,-1.7636553,-0.02339954,906.27098,-835.68813)"
       gradientUnits="userSpaceOnUse"
       id="radialGradient4221-1"
       xlink:href="#linearGradient4172-4-7"
       inkscape:collect="always" />
    <linearGradient
       id="linearGradient4172-4-7">
      <stop
         style="stop-color:#b83133;stop-opacity:1"
         offset="0"
         id="stop4174-0-4" />
      <stop
         style="stop-color:#ef0000;stop-opacity:0.7589286;"
         offset="1"
         id="stop4176-9-0" />
    </linearGradient>
    <linearGradient
       id="linearGradient5341-8">
      <stop
         style="stop-color:#e6e6e6;stop-opacity:0;"
         offset="0"
         id="stop5343-8" />
      <stop
         style="stop-color:#ffffff;stop-opacity:0.22321428;"
         offset="1"
         id="stop5345-2" />
    </linearGradient>
    <radialGradient
       inkscape:collect="always"
       xlink:href="#linearGradient4172-4-5"
       id="radialGradient4059-4"
       gradientUnits="userSpaceOnUse"
       gradientTransform="matrix(-0.00557622,0.42007705,-0.42607646,-0.00565303,230.64782,39.304002)"
       cx="522.32794"
       cy="111.46449"
       fx="522.32794"
       fy="111.46449"
       r="55.782425" />
    <linearGradient
       id="linearGradient4172-4-5">
      <stop
         style="stop-color:#b83133;stop-opacity:1"
         offset="0"
         id="stop4174-0-5" />
      <stop
         style="stop-color:#ef0000;stop-opacity:0.7589286;"
         offset="1"
         id="stop4176-9-1" />
    </linearGradient>
    <linearGradient
       inkscape:collect="always"
       xlink:href="#linearGradient5341-8-5"
       id="linearGradient4056-4-1"
       gradientUnits="userSpaceOnUse"
       gradientTransform="matrix(0.21603303,0,0,0.20722812,93.16318,128.65764)"
       x1="695.86584"
       y1="161.16219"
       x2="696.68622"
       y2="20.964478" />
    <linearGradient
       id="linearGradient5341-8-5">
      <stop
         style="stop-color:#e6e6e6;stop-opacity:0;"
         offset="0"
         id="stop5343-8-2" />
      <stop
         style="stop-color:#ffffff;stop-opacity:0.22321428;"
         offset="1"
         id="stop5345-2-7" />
    </linearGradient>
    <linearGradient
       inkscape:collect="always"
       xlink:href="#linearGradient5341-8-5-1"
       id="linearGradient4056-4-1-6"
       gradientUnits="userSpaceOnUse"
       gradientTransform="matrix(0.21603303,0,0,0.20722812,124.36264,129.01416)"
       x1="695.86584"
       y1="161.16219"
       x2="696.68622"
       y2="20.964478" />
    <linearGradient
       id="linearGradient5341-8-5-1">
      <stop
         style="stop-color:#e6e6e6;stop-opacity:0;"
         offset="0"
         id="stop5343-8-2-8" />
      <stop
         style="stop-color:#ffffff;stop-opacity:0.22321428;"
         offset="1"
         id="stop5345-2-7-9" />
    </linearGradient>
    <linearGradient
       inkscape:collect="always"
       xlink:href="#linearGradient5341-8-5-1-4"
       id="linearGradient4056-4-1-6-5"
       gradientUnits="userSpaceOnUse"
       gradientTransform="matrix(0.21603303,0,0,0.20722812,64.090791,128.16243)"
       x1="695.86584"
       y1="161.16219"
       x2="696.68622"
       y2="20.964478" />
    <linearGradient
       id="linearGradient5341-8-5-1-4">
      <stop
         style="stop-color:#e6e6e6;stop-opacity:0;"
         offset="0"
         id="stop5343-8-2-8-3" />
      <stop
         style="stop-color:#ffffff;stop-opacity:0.22321428;"
         offset="1"
         id="stop5345-2-7-9-1" />
    </linearGradient>
    <linearGradient
       inkscape:collect="always"
       xlink:href="#linearGradient5341-8-5-1-4-1"
       id="linearGradient4056-4-1-6-5-4"
       gradientUnits="userSpaceOnUse"
       gradientTransform="matrix(0.21603303,0,0,0.20722812,33.172008,128.30924)"
       x1="695.86584"
       y1="161.16219"
       x2="696.68622"
       y2="20.964478" />
    <linearGradient
       id="linearGradient5341-8-5-1-4-1">
      <stop
         style="stop-color:#e6e6e6;stop-opacity:0;"
         offset="0"
         id="stop5343-8-2-8-3-1" />
      <stop
         style="stop-color:#ffffff;stop-opacity:0.22321428;"
         offset="1"
         id="stop5345-2-7-9-1-3" />
    </linearGradient>
  </defs>
  <sodipodi:namedview
     pagecolor="#ffffff"
     bordercolor="#666666"
     borderopacity="1"
     objecttolerance="10"
     gridtolerance="10"
     guidetolerance="10"
     inkscape:pageopacity="0"
     inkscape:pageshadow="2"
     inkscape:window-width="1366"
     inkscape:window-height="715"
     id="namedview4101"
     showgrid="true"
     inkscape:zoom="1.44"
     inkscape:cx="329.5708"
     inkscape:cy="-21.537062"
     inkscape:window-x="-8"
     inkscape:window-y="-8"
     inkscape:window-maximized="1"
     inkscape:current-layer="svg4099"
     inkscape:snap-global="false">
    <inkscape:grid
       type="xygrid"
       id="grid4110" />
  </sodipodi:namedview>
  <path
     style="opacity:0.51959994;fill:#cccccc;fill-opacity:1;filter:url(#filter5249)"
     d="m 424.41768,168.49058 c -0.23902,-6.43108 -0.67571,-12.92585 1.15636,-19.38425 0.65162,-2.0511 2.8953,-3.85879 5.81531,-4.92462 6.55902,-2.46714 15.06624,-1.59061 20.05146,1.46537 3.69875,2.17165 5.64428,5.75952 3.52851,8.99741 -2.0966,2.81432 -6.24902,4.75831 -9.87529,6.79555 -6.11587,3.2819 -12.56527,6.30343 -19.04562,9.28052 -2.32192,0.9854 -1.25051,-1.60224 -1.63073,-2.22998 z m 15.42374,-13.30974 c 3.55182,0.52834 7.8049,-1.54539 7.40256,-3.91279 -0.47994,-3.16905 -7.38384,-4.92228 -11.53802,-2.70689 -2.50299,1.30676 -2.56663,3.73223 -0.57033,5.07315 1.16008,0.86223 2.89055,1.38315 4.70579,1.54653 z"
     id="path4151-5"
     inkscape:connector-curvature="0" />
  <path
     style="fill:url(#radialGradient5350);fill-opacity:1;stroke:url(#radialGradient5352);stroke-width:0.95332217"
     d="m 419.96604,164.61725 c -4.69549,-9.6293 -9.80949,-19.23414 -12.3319,-29.71225 -1.14501,-7.82216 6.09859,-14.84536 13.68939,-14.99936 7.58011,-0.62584 15.43536,5.64717 15.2388,13.50516 -0.34094,5.86397 -3.23353,11.14173 -5.37151,16.4991 -2.66709,5.97295 -5.51166,11.87706 -8.57599,17.65254 -1.47629,1.29101 -1.8625,-2.31432 -2.64879,-2.94519 z m 4.11885,-25.35535 c 4.49298,-0.93455 5.94758,-7.65835 2.16,-10.31234 -3.43542,-2.91713 -9.68802,-1.15123 -10.47279,3.48082 -0.84518,4.00222 3.0724,7.80665 7.04919,7.08741 l 0.63725,-0.10115 0.62635,-0.15474 0,0 z"
     id="path4151"
     inkscape:connector-curvature="0" />
  <path
     style="fill:#000000"
     d="m 499.82541,-67.895253 c -16.51173,-35.381437 -33.20681,-70.950707 -44.29085,-108.484237 -3.85207,-12.26931 -5.28659,-25.82376 -0.0874,-37.9521 7.90061,-21.91899 30.31005,-37.72331 53.76389,-36.65245 22.7252,0.17292 44.1503,15.67768 51.32193,37.26241 7.46759,18.79565 -0.0995,38.82179 -6.29694,56.77237 -12.17825,32.74554 -26.50473,64.674597 -41.73946,96.101137 -1.68132,4.70509 -5.33806,10.58506 -7.67977,2.81184 -1.78214,-3.22477 -3.40269,-6.53567 -4.99144,-9.85897 z m 15.81597,-103.844937 c 15.50533,-4.1652 21.63018,-24.98883 12.45875,-37.64093 -8.3501,-12.60979 -28.80032,-14.17841 -38.4803,-2.2918 -9.31913,9.91329 -8.02613,27.49202 2.87757,35.7569 6.27862,5.51588 15.33083,6.64827 23.14398,4.17583 z"
     id="path4151-1"
     inkscape:connector-curvature="0" />
  <path
     style="fill:#008000;fill-opacity:1;stroke:none"
     d="m 240.88048,160.49826 c -3.56708,-7.33203 -7.17376,-14.70299 -9.56829,-22.48099 -0.83217,-2.54255 -1.14207,-5.35141 -0.0189,-7.86474 1.70679,-4.54223 6.54797,-7.81734 11.61477,-7.59542 4.90939,0.0358 9.53793,3.24885 11.08725,7.72182 1.61324,3.89498 -0.0215,8.04496 -1.36036,11.76483 -2.63091,6.7858 -5.7259,13.4024 -9.0171,19.91485 -0.36323,0.97503 -1.1532,2.19353 -1.65908,0.5827 -0.38502,-0.66826 -0.7351,-1.35437 -1.07833,-2.04305 z m 3.41678,-21.51959 c 3.34966,-0.86315 4.67283,-5.17841 2.69149,-7.80027 -1.8039,-2.6131 -6.22181,-2.93817 -8.31301,-0.47492 -2.01324,2.05431 -1.73391,5.69712 0.62165,7.40983 1.3564,1.14305 3.31196,1.37771 4.99987,0.86536 z"
     id="path4151-4-7-6"
     inkscape:connector-curvature="0"
     inkscape:export-filename="C:\Temp\GIT\ocm-system\App\images\icons\map\set2_level2_60x100.png"
     inkscape:export-xdpi="215.96896"
     inkscape:export-ydpi="215.96896" />
  <path
     style="fill:url(#linearGradient4056-4-1);fill-opacity:1;stroke:#000000;stroke-width:0.8758114;stroke-miterlimit:4;stroke-opacity:0.3280423;stroke-dasharray:none"
     d="m 241.08353,160.57458 c -3.56709,-7.33203 -7.17378,-14.70298 -9.5683,-22.48099 -0.83217,-2.54254 -1.14208,-5.35141 -0.0189,-7.86473 1.70679,-4.54224 6.54796,-7.81735 11.61477,-7.59542 4.9094,0.0358 9.53793,3.24885 11.08723,7.72181 1.61325,3.895 -0.0215,8.04497 -1.36034,11.76484 -2.63091,6.78579 -5.7259,13.40238 -9.0171,19.91485 -0.36323,0.97503 -1.15319,2.19352 -1.65908,0.58269 -0.38501,-0.66825 -0.73511,-1.35438 -1.07832,-2.04305 z m 3.41676,-21.51959 c 3.34966,-0.86315 4.67283,-5.1784 2.69151,-7.80026 -1.8039,-2.6131 -6.22182,-2.93817 -8.31302,-0.47493 -2.01324,2.05433 -1.73391,5.69712 0.62165,7.40984 1.35639,1.14304 3.31197,1.37771 4.99986,0.86535 z"
     id="path4151-4-9-1-1"
     inkscape:connector-curvature="0"
     inkscape:export-filename="C:\Temp\GIT\ocm-system\App\images\icons\map\set2_level2_60x100.png"
     inkscape:export-xdpi="215.96896"
     inkscape:export-ydpi="215.96896" />
  <path
     sodipodi:nodetypes="ccccccc"
     inkscape:connector-curvature="0"
     id="use4182"
     d="m 237.96173,152.81068 6.62882,-6.35864 -4.9716,0 11.60044,-7.94831 -6.62884,6.35865 4.97162,0 z"
     style="fill:#e6e6e6;stroke:none"
     inkscape:export-filename="C:\Temp\GIT\ocm-system\App\images\icons\map\set2_level2_60x100.png"
     inkscape:export-xdpi="215.96896"
     inkscape:export-ydpi="215.96896" />
  <path
     style="fill:#ff6600;fill-opacity:1;stroke:none"
     d="m 272.29858,160.85478 c -3.56708,-7.33203 -7.17377,-14.70298 -9.56829,-22.48099 -0.83218,-2.54255 -1.14208,-5.35141 -0.0189,-7.86473 1.70678,-4.54224 6.54797,-7.81734 11.61477,-7.59542 4.9094,0.0358 9.53793,3.24885 11.08724,7.72182 1.61324,3.89499 -0.0215,8.04496 -1.36036,11.76482 -2.6309,6.78581 -5.72589,13.40241 -9.0171,19.91486 -0.36322,0.97503 -1.1532,2.19353 -1.65908,0.58269 -0.38501,-0.66825 -0.7351,-1.35437 -1.07832,-2.04305 z m 3.41676,-21.51959 c 3.34967,-0.86315 4.67284,-5.1784 2.69151,-7.80026 -1.8039,-2.6131 -6.22182,-2.93816 -8.31302,-0.47493 -2.01324,2.05432 -1.7339,5.69712 0.62165,7.40984 1.3564,1.14304 3.31197,1.37771 4.99986,0.86535 z"
     id="path4151-4-7-6-2"
     inkscape:connector-curvature="0"
     inkscape:export-filename="C:\Temp\GIT\ocm-system\App\images\icons\map\set2_level3_60x100.png"
     inkscape:export-xdpi="216.23334"
     inkscape:export-ydpi="216.23334" />
  <path
     style="fill:url(#linearGradient4056-4-1-6);fill-opacity:1;stroke:#000000;stroke-width:0.8758114;stroke-miterlimit:4;stroke-opacity:0.3280423;stroke-dasharray:none"
     d="m 272.28298,160.93111 c -3.56708,-7.33202 -7.17377,-14.70298 -9.56828,-22.48098 -0.83219,-2.54256 -1.14209,-5.35142 -0.0189,-7.86475 1.70678,-4.54224 6.54796,-7.81733 11.61477,-7.59542 4.9094,0.0358 9.53793,3.24886 11.08723,7.72182 1.61324,3.89499 -0.0215,8.04496 -1.36035,11.76483 -2.63089,6.78579 -5.72589,13.40239 -9.01711,19.91486 -0.36322,0.97503 -1.15319,2.19352 -1.65907,0.5827 -0.385,-0.66826 -0.7351,-1.35439 -1.07832,-2.04306 z m 3.41677,-21.5196 c 3.34966,-0.86314 4.67283,-5.17839 2.69151,-7.80025 -1.80391,-2.6131 -6.22183,-2.93817 -8.31303,-0.47493 -2.01324,2.05432 -1.73391,5.69712 0.62166,7.40983 1.35639,1.14304 3.31196,1.37772 4.99986,0.86535 z"
     id="path4151-4-9-1-1-7"
     inkscape:connector-curvature="0"
     inkscape:export-filename="C:\Temp\GIT\ocm-system\App\images\icons\map\set2_level3_60x100.png"
     inkscape:export-xdpi="216.23334"
     inkscape:export-ydpi="216.23334" />
  <path
     sodipodi:nodetypes="ccccccc"
     inkscape:connector-curvature="0"
     id="use4182-9"
     d="m 269.37982,153.16722 6.62883,-6.35866 -4.97161,0 11.60044,-7.9483 -6.62883,6.35864 4.97162,0 z"
     style="fill:#e6e6e6;stroke:none"
     inkscape:export-filename="C:\Temp\GIT\ocm-system\App\images\icons\map\set2_level3_60x100.png"
     inkscape:export-xdpi="216.23334"
     inkscape:export-ydpi="216.23334" />
  <path
     style="fill:#677821;fill-opacity:1;stroke:none"
     d="m 212.02674,159.79333 c -3.56708,-7.33203 -7.17376,-14.70298 -9.56829,-22.48099 -0.83218,-2.54255 -1.14208,-5.35142 -0.0189,-7.86474 1.7068,-4.54224 6.54797,-7.81734 11.61479,-7.59542 4.90938,0.0358 9.53791,3.24886 11.08722,7.72182 1.61325,3.89499 -0.0215,8.04496 -1.36035,11.76482 -2.6309,6.7858 -5.7259,13.4024 -9.0171,19.91486 -0.36322,0.97504 -1.15319,2.19352 -1.65908,0.5827 -0.385,-0.66825 -0.73509,-1.35438 -1.07832,-2.04305 z m 3.41678,-21.5196 c 3.34965,-0.86314 4.67282,-5.1784 2.69149,-7.80025 -1.8039,-2.61311 -6.22181,-2.93817 -8.31302,-0.47493 -2.01324,2.05432 -1.7339,5.69712 0.62166,7.40983 1.35639,1.14305 3.31196,1.37772 4.99987,0.86535 z"
     id="path4151-4-7-6-2-2"
     inkscape:connector-curvature="0"
     inkscape:export-filename="C:\Temp\GIT\ocm-system\App\images\icons\map\set2_level1_60x100.png"
     inkscape:export-xdpi="215.97649"
     inkscape:export-ydpi="215.97649" />
  <path
     style="fill:url(#linearGradient4056-4-1-6-5);fill-opacity:1;stroke:#000000;stroke-width:0.8758114;stroke-miterlimit:4;stroke-opacity:0.3280423;stroke-dasharray:none"
     d="m 212.01114,160.07938 c -3.56709,-7.33203 -7.17376,-14.70299 -9.56829,-22.48099 -0.83216,-2.54255 -1.14208,-5.35141 -0.0189,-7.86474 1.70679,-4.54224 6.54796,-7.81733 11.61477,-7.59542 4.9094,0.0358 9.53792,3.24886 11.08723,7.72182 1.61325,3.89499 -0.0215,8.04497 -1.36035,11.76483 -2.6309,6.7858 -5.72589,13.4024 -9.01709,19.91485 -0.36323,0.97503 -1.1532,2.19354 -1.65909,0.5827 -0.385,-0.66826 -0.73509,-1.35438 -1.07832,-2.04305 z m 3.41677,-21.5196 c 3.34967,-0.86314 4.67284,-5.17838 2.6915,-7.80026 -1.80389,-2.6131 -6.22181,-2.93816 -8.31301,-0.47493 -2.01324,2.05432 -1.73391,5.69712 0.62166,7.40985 1.35638,1.14304 3.31196,1.3777 4.99985,0.86534 z"
     id="path4151-4-9-1-1-7-3"
     inkscape:connector-curvature="0"
     inkscape:export-filename="C:\Temp\GIT\ocm-system\App\images\icons\map\set2_level1_60x100.png"
     inkscape:export-xdpi="215.97649"
     inkscape:export-ydpi="215.97649" />
  <path
     sodipodi:nodetypes="ccccccc"
     inkscape:connector-curvature="0"
     id="use4182-9-3"
     d="m 209.108,152.10576 6.62881,-6.35865 -4.97161,0 11.60044,-7.94831 -6.62883,6.35865 4.97161,0 z"
     style="fill:#e6e6e6;stroke:none"
     inkscape:export-filename="C:\Temp\GIT\ocm-system\App\images\icons\map\set2_level1_60x100.png"
     inkscape:export-xdpi="215.97649"
     inkscape:export-ydpi="215.97649" />
  <path
     style="fill:#666666;fill-opacity:1;stroke:none"
     d="m 181.10796,159.94013 c -3.56707,-7.33203 -7.17376,-14.70298 -9.56829,-22.48099 -0.83217,-2.54254 -1.14207,-5.3514 -0.0189,-7.86473 1.70679,-4.54224 6.54797,-7.81734 11.61477,-7.59542 4.90939,0.0358 9.53793,3.24885 11.08724,7.72182 1.61325,3.89499 -0.0215,8.04496 -1.36036,11.76482 -2.6309,6.78581 -5.72589,13.40241 -9.01709,19.91486 -0.36323,0.97503 -1.1532,2.19353 -1.65908,0.58269 -0.38502,-0.66825 -0.7351,-1.35437 -1.07833,-2.04305 z m 3.41678,-21.51958 c 3.34966,-0.86316 4.67283,-5.17841 2.69149,-7.80027 -1.8039,-2.6131 -6.22181,-2.93816 -8.31301,-0.47493 -2.01325,2.05433 -1.73391,5.69712 0.62165,7.40984 1.3564,1.14304 3.31196,1.37771 4.99987,0.86536 z"
     id="path4151-4-7-6-2-2-8"
     inkscape:connector-curvature="0"
     inkscape:export-filename="C:\Temp\GIT\ocm-system\App\images\icons\map\set2_level0_60x100.png"
     inkscape:export-xdpi="216.11426"
     inkscape:export-ydpi="216.11426" />
  <path
     style="fill:url(#linearGradient4056-4-1-6-5-4);fill-opacity:1;stroke:#000000;stroke-width:0.8758114;stroke-miterlimit:4;stroke-opacity:0.3280423;stroke-dasharray:none"
     d="m 181.09236,160.22618 c -3.56708,-7.33203 -7.17377,-14.70297 -9.56828,-22.48098 -0.83218,-2.54255 -1.14209,-5.35141 -0.0189,-7.86475 1.70679,-4.54224 6.54796,-7.81733 11.61477,-7.59542 4.9094,0.0358 9.53793,3.24887 11.08724,7.72183 1.61324,3.89498 -0.0215,8.04496 -1.36036,11.76483 -2.6309,6.7858 -5.72589,13.40239 -9.0171,19.91486 -0.36322,0.97502 -1.15319,2.19352 -1.65907,0.5827 -0.38501,-0.66827 -0.7351,-1.35439 -1.07833,-2.04307 z m 3.41678,-21.51959 c 3.34966,-0.86314 4.67283,-5.17839 2.6915,-7.80025 -1.80391,-2.61311 -6.22183,-2.93817 -8.31302,-0.47493 -2.01324,2.05431 -1.73392,5.69712 0.62165,7.40984 1.35639,1.14303 3.31196,1.37771 4.99987,0.86534 z"
     id="path4151-4-9-1-1-7-3-7"
     inkscape:connector-curvature="0"
     inkscape:export-filename="C:\Temp\GIT\ocm-system\App\images\icons\map\set2_level0_60x100.png"
     inkscape:export-xdpi="216.11426"
     inkscape:export-ydpi="216.11426" />
</svg>
